<?xml version="1.0" standalone="no"?>
<!DOCTYPE svg PUBLIC "-//W3C//DTD SVG 20010904//EN"
 "http://www.w3.org/TR/2001/REC-SVG-20010904/DTD/svg10.dtd">
<svg version="1.0" xmlns="http://www.w3.org/2000/svg"
 width="1280.000000pt" height="640.000000pt" viewBox="0 0 1280.000000 640.000000"
 preserveAspectRatio="xMidYMid meet">
<g transform="translate(0.000000,640.000000) scale(0.100000,-0.100000)"
fill="#000000" stroke="none">
<path d="M1450 5279 c-386 -50 -718 -219 -990 -506 -215 -226 -364 -512 -419
-803 -50 -269 -51 -297 -16 -510 64 -381 206 -662 470 -926 190 -191 385 -314
624 -394 444 -149 968 -105 1346 112 346 200 574 519 668 936 19 84 21 127 21
332 1 161 -3 244 -12 263 l-12 27 -732 -2 -733 -3 0 -210 0 -210 525 -5 525
-5 -3 -55 c-9 -170 -106 -381 -241 -524 -276 -289 -772 -396 -1193 -256 -286
96 -540 315 -675 585 -189 375 -159 862 75 1215 217 328 578 520 976 520 292
0 529 -87 772 -285 l32 -26 146 153 147 153 -55 51 c-162 153 -456 297 -706
348 -176 35 -385 45 -540 25z"/>
<path d="M10222 3648 l3 -1533 215 0 215 0 3 1533 2 1532 -220 0 -220 0 2
-1532z"/>
<path d="M4231 4119 c-153 -18 -331 -85 -464 -175 -85 -58 -201 -177 -263
-270 -68 -102 -108 -189 -142 -312 -24 -89 -27 -112 -26 -267 0 -151 3 -181
27 -270 115 -430 462 -723 905 -765 610 -57 1111 372 1139 976 15 314 -83 583
-286 785 -231 230 -551 337 -890 298z m291 -405 c256 -62 433 -296 445 -589 9
-210 -50 -371 -186 -505 -120 -118 -245 -170 -411 -170 -166 0 -293 53 -411
171 -90 89 -148 196 -173 321 -99 483 283 883 736 772z"/>
<path d="M6521 4119 c-343 -42 -642 -252 -796 -558 -70 -140 -95 -245 -102
-426 -6 -176 13 -293 71 -437 59 -145 111 -223 231 -343 116 -115 194 -169
332 -224 265 -107 596 -100 849 18 268 126 459 343 544 619 132 427 -9 896
-345 1145 -222 165 -510 241 -784 206z m274 -401 c160 -33 317 -161 393 -318
149 -307 55 -691 -211 -858 -101 -63 -167 -84 -287 -90 -186 -8 -314 41 -442
168 -136 135 -195 295 -186 503 8 182 67 324 182 437 151 149 341 203 551 158z"/>
<path d="M8795 4120 c-143 -17 -290 -71 -418 -153 -86 -55 -222 -191 -283
-283 -120 -181 -173 -343 -181 -559 -4 -118 -2 -156 16 -242 70 -337 269 -594
573 -738 161 -76 333 -106 498 -86 165 21 284 74 397 178 31 29 63 51 70 49
16 -7 18 -165 2 -286 -34 -271 -188 -441 -442 -486 -249 -45 -498 75 -616 296
-18 33 -35 60 -38 60 -7 0 -367 -151 -372 -156 -8 -7 38 -94 88 -169 58 -87
177 -208 260 -264 88 -60 210 -115 316 -142 77 -20 114 -24 260 -23 152 0 181
3 275 27 359 95 592 354 669 747 25 128 31 341 31 1233 l0 937 -210 0 -210 0
0 -74 c0 -41 -5 -78 -10 -81 -6 -4 -44 21 -85 54 -164 132 -369 188 -590 161z
m284 -407 c96 -26 172 -71 246 -147 78 -79 121 -153 157 -266 30 -98 33 -308
5 -409 -109 -400 -533 -568 -868 -345 -113 75 -188 178 -235 321 -26 80 -29
100 -28 223 1 118 4 145 27 215 103 314 402 489 696 408z"/>
<path d="M11693 4115 c-397 -72 -691 -368 -780 -785 -24 -116 -25 -353 0 -468
87 -406 359 -684 764 -784 112 -27 339 -30 448 -5 113 25 236 74 324 128 80
49 233 185 292 260 l30 38 -165 111 c-91 60 -171 110 -178 110 -7 0 -24 -16
-37 -36 -65 -95 -201 -185 -327 -218 -78 -20 -229 -20 -314 0 -126 29 -242
116 -322 239 -38 58 -38 60 -20 75 10 8 323 141 695 295 372 154 677 285 677
292 0 20 -96 236 -130 293 -182 300 -474 471 -800 469 -47 -1 -117 -7 -157
-14z m394 -420 c48 -24 86 -52 117 -86 42 -47 66 -93 54 -105 -9 -9 -911 -384
-924 -384 -19 0 -27 36 -19 99 19 167 112 319 258 422 162 114 351 133 514 54z"/>
</g>
</svg>
